HIERARCHY
ROOT Hips
{
	OFFSET 48.557701 -11.656214 84.019203
	CHANNELS 6 Xposition Yposition Zposition Xrotation Yrotation Zrotation
	JOINT spine
	{
		OFFSET 0.000000 -0.342408 5.954384
		CHANNELS 3 Xrotation Yrotation Zrotation
		JOINT spine1
		{
			OFFSET 0.000000 -0.000002 8.856018
			CHANNELS 3 Xrotation Yrotation Zrotation
			JOINT spine2
			{
				OFFSET 0.000000 -0.000001 8.485672
				CHANNELS 3 Xrotation Yrotation Zrotation
				JOINT Neck
				{
					OFFSET 0.000000 -1.038704 21.786301
					CHANNELS 3 Xrotation Yrotation Zrotation
					JOINT Head
					{
						OFFSET 0.000000 -0.000001 6.582199
						CHANNELS 3 Xrotation Yrotation Zrotation
						End Site
						{
							OFFSET 0.000000 5.254357 15.932602
						}
					}
				}
				JOINT RightShoulder
				{
					OFFSET -3.573071 0.497523 9.163864
					CHANNELS 3 Xrotation Yrotation Zrotation
					JOINT RightArm
					{
						OFFSET 0.000000 -0.000002 12.019196
						CHANNELS 3 Xrotation Yrotation Zrotation
						JOINT RightArmRoll
						{
							OFFSET 0.000000 -0.000001 6.067535
							CHANNELS 3 Xrotation Yrotation Zrotation
							JOINT RightForeArm
							{
								OFFSET 0.000000 -0.000003 17.672592
								CHANNELS 3 Xrotation Yrotation Zrotation
								JOINT RightForeArmRoll
								{
									OFFSET 0.000000 -0.000001 6.808716
									CHANNELS 3 Xrotation Yrotation Zrotation
									JOINT RightHand
									{
										OFFSET 0.000000 -0.000003 13.663605
										CHANNELS 3 Xrotation Yrotation Zrotation
										End Site
										{
											OFFSET 0.000000 0.000000 0.100006
										}
									}
								}
							}
						}
					}
				}
				JOINT LeftShoulder
				{
					OFFSET 3.573071 0.497523 9.163864
					CHANNELS 3 Xrotation Yrotation Zrotation
					JOINT LeftArm
					{
						OFFSET 0.000000 -0.000002 12.019196
						CHANNELS 3 Xrotation Yrotation Zrotation
						JOINT LeftArmRoll
						{
							OFFSET 0.000000 -0.000001 6.067535
							CHANNELS 3 Xrotation Yrotation Zrotation
							JOINT LeftForeArm
							{
								OFFSET 0.000000 -0.000003 17.672592
								CHANNELS 3 Xrotation Yrotation Zrotation
								JOINT LeftForeArmRoll
								{
									OFFSET 0.000000 -0.000001 6.808716
									CHANNELS 3 Xrotation Yrotation Zrotation
									JOINT LeftHand
									{
										OFFSET 0.000000 -0.000003 13.663605
										CHANNELS 3 Xrotation Yrotation Zrotation
										End Site
										{
											OFFSET 0.000000 0.000000 0.100006
										}
									}
								}
							}
						}
					}
				}
			}
		}
	}
	JOINT RightUpLeg
	{
		OFFSET -5.277740 0.811858 -0.967796
		CHANNELS 3 Xrotation Yrotation Zrotation
		JOINT RightUpLegRoll
		{
			OFFSET 0.000000 -0.000003 16.021400
			CHANNELS 3 Xrotation Yrotation Zrotation
			JOINT RightLeg
			{
				OFFSET 0.000000 0.000003 -19.840096
				CHANNELS 3 Xrotation Yrotation Zrotation
				JOINT RightLegRoll
				{
					OFFSET 0.000000 -0.000003 19.904999
					CHANNELS 3 Xrotation Yrotation Zrotation
					JOINT RightFoot
					{
						OFFSET 0.000000 -0.000003 16.567497
						CHANNELS 3 Xrotation Yrotation Zrotation
						JOINT RightToeBase
						{
							OFFSET 0.000000 -0.000002 13.849602
							CHANNELS 3 Xrotation Yrotation Zrotation
							End Site
							{
								OFFSET 0.005871 0.773116 6.707275
							}
						}
					}
				}
			}
		}
	}
	JOINT LeftUpLeg
	{
		OFFSET 5.277740 0.811858 -0.967796
		CHANNELS 3 Xrotation Yrotation Zrotation
		JOINT LeftUpLegRoll
		{
			OFFSET 0.000000 -0.000003 16.021500
			CHANNELS 3 Xrotation Yrotation Zrotation
			JOINT LeftLeg
			{
				OFFSET 0.000000 -0.000003 19.839996
				CHANNELS 3 Xrotation Yrotation Zrotation
				JOINT LeftLegRoll
				{
					OFFSET 0.000000 -0.000004 20.089005
					CHANNELS 3 Xrotation Yrotation Zrotation
					JOINT LeftFoot
					{
						OFFSET 0.000000 -0.000003 16.383499
						CHANNELS 3 Xrotation Yrotation Zrotation
						JOINT LeftToeBase
						{
							OFFSET 0.000000 -0.000002 13.849594
							CHANNELS 3 Xrotation Yrotation Zrotation
							End Site
							{
								OFFSET -0.026310 0.773116 6.707275
							}
						}
					}
				}
			}
		}
	}
}
MOTION
Frames: 8
Frame Time: 0.041667
47.028500 -6.597507 83.823204 1.355219 -3.878836 50.878192 -0.371106 -0.099270 0.097847 3.260765 -0.173598 0.205514 4.905832 -0.171137 0.201019 27.292598 3.467258 6.063404 -6.986370 -2.029958 6.161557 8.138918 -63.762104 8.765660 122.883040 -45.466722 98.063874 -0.000028 0.000000 0.000007 52.632946 3.087083 -3.966256 0.000017 0.000009 -3.000011 -4.999727 -7.999874 0.000007 -17.777579 67.781356 21.033436 -41.572978 115.271545 47.590146 0.000003 -0.000003 -0.000009 -0.027490 -3.652351 1.990808 0.000002 -0.000040 3.011590 -5.000182 7.999958 -0.000006 -6.072004 -174.260174 2.866121 -179.999991 0.000005 -0.934993 163.080288 0.646747 -0.621271 -0.000001 0.000003 0.576946 73.776363 6.785112 2.084201 25.456918 -7.350142 0.000002 -8.587626 -176.624198 2.914059 -0.000004 -0.000005 -0.783040 -8.469018 1.714520 0.406416 0.000000 -0.000004 0.080180 64.699131 -6.943902 -2.267280 25.456948 7.355610 -0.000191 
47.073196 -6.576879 83.816490 1.324804 -3.876934 50.930392 -0.378533 -0.098181 0.097840 3.245925 -0.172951 0.205179 4.890980 -0.170492 0.201010 27.144777 3.369880 6.081274 -6.968676 -1.964869 6.172271 8.282476 -63.877678 8.908757 122.697382 -45.449093 97.968033 -0.000027 0.000001 0.000008 52.705831 3.085685 -3.967287 0.000017 0.000010 -3.000010 -4.999728 -7.999874 0.000009 -17.790392 67.747280 21.047817 -41.522287 115.321775 47.583633 0.000004 -0.000002 -0.000009 -0.027489 -3.652350 1.990807 0.000002 -0.000040 3.011590 -5.000183 7.999959 -0.000005 -6.065630 -174.266061 2.874087 -179.999991 0.000005 -0.938001 162.999295 0.643594 -0.625226 0.000001 0.000003 0.574659 73.729119 6.786245 2.084221 25.456921 -7.350143 0.000004 -8.596007 -176.628214 2.905373 -0.000004 -0.000005 -0.785742 -8.563433 1.717073 0.411026 0.000000 -0.000004 0.077037 64.742687 -6.943021 -2.267206 25.456950 7.355611 -0.000193 
47.131100 -6.579298 83.817009 1.294441 -3.875524 50.982602 -0.385938 -0.097009 0.097838 3.231104 -0.172209 0.204839 4.876170 -0.169750 0.201010 26.998049 3.271228 6.098750 -6.953084 -1.898910 6.183048 8.427192 -63.993811 9.053082 122.512065 -45.432253 97.872636 -0.000031 -0.000001 0.000008 52.778019 3.084326 -3.968255 0.000017 0.000010 -3.000012 -4.999728 -7.999874 0.000008 -17.801865 67.713457 21.060699 -41.471017 115.370528 47.576195 0.000003 -0.000002 -0.000008 -0.027491 -3.652349 1.990806 0.000003 -0.000041 3.011590 -5.000183 7.999957 -0.000004 -6.057948 -174.271949 2.882042 -179.999991 0.000005 -0.941999 162.919396 0.641413 -0.628912 0.000000 0.000003 0.572416 73.682455 6.787417 2.084012 25.456918 -7.350146 0.000003 -8.603902 -176.631246 2.897218 -0.000005 -0.000005 -0.788452 -8.657798 1.719286 0.415618 0.000000 -0.000004 0.073908 64.786359 -6.942175 -2.267133 25.456952 7.355608 -0.000190 
47.203800 -6.641087 83.833603 1.264131 -3.874467 51.034726 -0.393331 -0.095776 0.097841 3.216315 -0.171398 0.204497 4.861379 -0.168939 0.201005 26.852322 3.171648 6.115788 -6.938970 -1.832360 6.193843 8.573098 -64.110287 9.198655 122.326612 -45.415792 97.777238 -0.000031 0.000000 0.000008 52.849712 3.083007 -3.969189 0.000018 0.000010 -3.000011 -4.999728 -7.999875 0.000005 -17.812450 67.679928 21.072537 -41.418329 115.418736 47.566995 0.000004 -0.000002 -0.000012 -0.027488 -3.652351 1.990807 0.000002 -0.000042 3.011589 -5.000183 7.999959 -0.000009 -6.049352 -174.276826 2.889882 -179.999991 0.000006 -0.945002 162.840302 0.639221 -0.632630 0.000000 0.000002 0.570200 73.636317 6.788514 2.083962 25.456921 -7.350146 0.000003 -8.611458 -176.634293 2.889520 -0.000005 -0.000004 -0.791168 -8.752129 1.721263 0.420190 0.000001 -0.000004 0.070792 64.830134 -6.941313 -2.267155 25.456953 7.355612 -0.000190 
47.251999 -6.624416 83.825592 1.233902 -3.873630 51.086868 -0.400724 -0.094509 0.097840 3.201534 -0.170549 0.204148 4.846602 -0.168090 0.201006 26.707001 3.071518 6.132400 -6.925713 -1.765462 6.204658 8.720202 -64.226803 9.345519 122.141691 -45.399052 97.682517 -0.000031 -0.000000 0.000008 52.920999 3.081706 -3.970091 0.000017 0.000009 -3.000011 -4.999729 -7.999874 0.000004 -17.822547 67.646562 21.083827 -41.364773 115.466588 47.556736 0.000003 -0.000003 -0.000007 -0.027489 -3.652351 1.990807 0.000002 -0.000041 3.011591 -5.000183 7.999959 -0.000006 -6.040226 -174.282713 2.897833 -179.999991 0.000005 -0.947999 162.761509 0.637044 -0.636342 -0.000001 0.000002 0.568001 73.590330 6.789669 2.083812 25.456921 -7.350142 0.000003 -8.618827 -176.637312 2.882102 -0.000005 -0.000005 -0.793890 -8.846430 1.723098 0.424763 0.000000 -0.000004 0.067682 64.873915 -6.940455 -2.267174 25.456953 7.355612 -0.000192 
47.300896 -6.622350 83.825111 1.203723 -3.872907 51.139108 -0.408110 -0.093232 0.097840 3.186754 -0.169688 0.203800 4.831819 -0.167232 0.200998 26.561894 2.971209 6.148539 -6.912668 -1.698472 6.215455 8.868571 -64.343162 9.493738 121.956265 -45.382386 97.587024 -0.000030 0.000000 0.000008 52.992292 3.080409 -3.970992 0.000018 0.000010 -3.000010 -4.999728 -7.999873 0.000008 -17.832464 67.613217 21.094908 -41.311255 115.514413 47.546463 0.000004 -0.000001 -0.000009 -0.027490 -3.652351 1.990812 0.000001 -0.000040 3.011591 -5.000184 7.999959 -0.000007 -6.030966 -174.288574 2.905774 -179.999991 0.000006 -0.951998 162.682894 0.635821 -0.639765 -0.000001 0.000003 0.565805 73.544362 6.790829 2.083866 25.456921 -7.350142 0.000003 -8.626139 -176.639361 2.874608 -0.000004 -0.000004 -0.796612 -8.940735 1.724887 0.429332 0.000000 -0.000004 0.064575 64.917697 -6.939607 -2.267200 25.456955 7.355612 -0.000190 
47.357494 -6.628318 83.821503 1.173621 -3.872141 51.191359 -0.415500 -0.091973 0.097836 3.171963 -0.168848 0.203454 4.817039 -0.166393 0.200999 26.416621 2.871077 6.164197 -6.899220 -1.631646 6.226199 9.018284 -64.459343 9.643417 121.770921 -45.365068 97.491579 -0.000030 0.000001 0.000008 53.063777 3.079099 -3.971908 0.000019 0.000010 -3.000012 -4.999729 -7.999874 0.000007 -17.842641 67.579838 21.106289 -41.257133 115.563194 47.535514 0.000005 -0.000002 -0.000009 -0.027488 -3.652351 1.990815 0.000002 -0.000043 3.011592 -5.000183 7.999959 -0.000001 -6.021988 -174.293464 2.913621 -179.999991 0.000005 -0.955005 162.604114 0.633631 -0.642483 -0.000001 0.000002 0.563606 73.498402 6.791967 2.083716 25.456916 -7.350142 0.000001 -8.633555 -176.642380 2.867109 -0.000004 -0.000005 -0.799334 -9.035045 1.726730 0.433918 0.000000 -0.000004 0.061464 64.961485 -6.938725 -2.267218 25.456952 7.355607 -0.000191 
47.396301 -6.585779 83.811096 1.143581 -3.871210 51.243607 -0.422900 -0.090758 0.097837 3.157163 -0.168057 0.203118 4.802240 -0.165602 0.200999 26.270975 2.771497 6.179360 -6.884734 -1.565248 6.236851 9.169312 -64.574951 9.794560 121.585468 -45.346917 97.395540 -0.000030 -0.000000 0.000008 53.135580 3.077778 -3.972860 0.000017 0.000010 -3.000011 -4.999728 -7.999875 0.000009 -17.853353 67.546186 21.118255 -41.205490 115.611566 47.527462 0.000003 -0.000003 -0.000009 -0.027489 -3.652351 1.990801 0.000003 -0.000041 3.011589 -5.000182 7.999958 -0.000003 -6.013646 -174.299338 2.921563 -179.999991 0.000005 -0.957997 162.524693 0.631453 -0.646208 0.000000 0.000002 0.561381 73.452032 6.793121 2.083694 25.456918 -7.350145 0.000005 -8.641213 -176.645426 2.859293 -0.000004 -0.000004 -0.802047 -9.129391 1.728724 0.438528 0.000000 -0.000004 0.058343 65.005178 -6.937916 -2.267162 25.456953 7.355614 -0.000190 
